<?xml version="1.0" encoding="UTF-8" standalone="no"?>
<!DOCTYPE svg PUBLIC "-//W3C//DTD SVG 1.1//EN" "http://www.w3.org/Graphics/SVG/1.1/DTD/svg11.dtd">
<svg width="100%" height="100%" viewBox="0 0 1000 1000" version="1.1" xmlns="http://www.w3.org/2000/svg" xmlns:xlink="http://www.w3.org/1999/xlink" xml:space="preserve" xmlns:serif="http://www.serif.com/" style="fill-rule:evenodd;clip-rule:evenodd;stroke-linecap:round;stroke-linejoin:round;">
    <g transform="matrix(1,0,0,1,-1050,0)">
        <rect id="Artboard2" x="1050" y="0" width="1000" height="1000" style="fill:none;"/>
        <g id="Artboard21" serif:id="Artboard2">
            <g transform="matrix(0.905424,0,0,0.905424,146.593372,47.288184)">
                <path d="M2050,104.118L2050,895.882C2050,953.346 2003.346,1000 1945.882,1000L1154.118,1000C1096.654,1000 1050,953.346 1050,895.882L1050,104.118C1050,46.654 1096.654,0 1154.118,0L1945.882,0C2003.346,0 2050,46.654 2050,104.118Z" style="fill:rgb(255,250,250);"/>
            </g>
            <g transform="matrix(6.750859,0,0,6.750859,1550,497.345472)">
                <g transform="matrix(1,0,0,1,-66.666667,-66.666667)">
                    <g transform="matrix(5.555556,0,0,5.555556,0,0)">
                        <path d="M16,2L16,6M8,2L8,6" style="fill:none;fill-rule:nonzero;stroke:rgb(232,122,147);stroke-width:1.5px;"/>
                    </g>
                    <g transform="matrix(5.555556,0,0,5.555556,0,0)">
                        <path d="M12,22L11,22C7.229,22 5.343,22 4.172,20.828C3,19.657 3,17.771 3,14L3,12C3,8.229 3,6.343 4.172,5.172C5.343,4 7.229,4 11,4L13,4C16.771,4 18.657,4 19.828,5.172C21,6.343 21,8.229 21,12L21,12.5" style="fill:none;fill-rule:nonzero;stroke:rgb(232,122,147);stroke-width:1.5px;"/>
                    </g>
                    <g transform="matrix(5.555556,0,0,5.555556,0,0)">
                        <path d="M3,10L21,10" style="fill:none;fill-rule:nonzero;stroke:rgb(232,122,147);stroke-width:1.5px;"/>
                    </g>
                    <g transform="matrix(5.555556,0,0,5.555556,0,0)">
                        <path d="M17,22C17,22 21,20.147 21,17.139C21,15.958 20.158,15 19,15C18.053,15 17.421,15.412 17,16.235C16.579,15.412 15.947,15 15,15C13.842,15 13,15.958 13,17.139C13,20.147 17,22 17,22Z" style="fill:none;fill-rule:nonzero;stroke:rgb(232,122,147);stroke-width:1.5px;"/>
                    </g>
                </g>
            </g>
        </g>
    </g>
</svg>
